# xmcd
#
# Track frame offsets:
#	150
#	12592
#	24867
#	37986
#	54031
#	68466
#	86441
#	100001
#	118741
#	127268
#	145768
#	164456
#	182556
#	187781
#	199493
#	208532
#
# Disc length: 2944 seconds
#
# Revision: 1
# Processed by: cddbd v1.5.2PL0 Copyright (c) Steve Scherf et al.
# Submitted via: EasyCDDAExtractor 5.0.6
#
DISCID=ce0b7e10
DTITLE=Black Milk - Popular Demand [CD1]
DYEAR=2007
DGENRE=Hip-Hop
TTITLE0=Popular Demand
TTITLE1=Sound The Alarm (Feat. Guilty Simpson)
TTITLE2=Insane
TTITLE3=Lookatusnow (Feat. Phat Kat)
TTITLE4=U (Feat. Ty and Kory)
TTITLE5=Shut It Down
TTITLE6=So Gone
TTITLE7=Say Something (Feat. Nametag and Slim S.D.H.)
TTITLE8=Play The Keys
TTITLE9=Watch 'Em (Feat. Que Diesel and Fat Ray)
TTITLE10=Three+Sum
TTITLE11=Action (Feat. Slum Village and Baatin)
TTITLE12=Luvin' It
TTITLE13=One Song
TTITLE14=I'm Out
TTITLE15=(Hidden Track)
EXTD=
EXTT0=
EXTT1=
EXTT2=
EXTT3=
EXTT4=
EXTT5=
EXTT6=
EXTT7=
EXTT8=
EXTT9=
EXTT10=
EXTT11=
EXTT12=
EXTT13=
EXTT14=
EXTT15=
PLAYORDER=
